<svg width="32" height="32" viewBox="0 0 32 32" fill="none" xmlns="http://www.w3.org/2000/svg">
<path d="M21.333 19C23.0126 19 24.6238 19.6678 25.8115 20.8555C26.999 22.0431 27.6659 23.6536 27.666 25.333V28C27.666 28.5523 27.2183 29 26.666 29C26.114 28.9997 25.666 28.5521 25.666 28V25.333C25.6659 24.184 25.2098 23.0821 24.3975 22.2695C23.6356 21.5077 22.6188 21.058 21.5479 21.0049L21.333 21H10.666C9.51698 21.0002 8.41505 21.457 7.60254 22.2695C6.79006 23.0821 6.33309 24.1839 6.33301 25.333V28C6.33301 28.5523 5.88529 29 5.33301 29C4.78087 28.9998 4.33301 28.5522 4.33301 28V25.333C4.33309 23.6535 5.00092 22.0431 6.18848 20.8555C7.37605 19.6679 8.98654 19.0002 10.666 19H21.333ZM16 3C19.4975 3.00018 22.3328 5.83546 22.333 9.33301C22.333 12.8307 19.4977 15.6668 16 15.667C12.5023 15.6668 9.66602 12.8307 9.66602 9.33301C9.66619 5.83546 12.5025 3.00017 16 3ZM16 5C13.607 5.00017 11.6662 6.94003 11.666 9.33301C11.666 11.7261 13.6069 13.6668 16 13.667C18.3931 13.6668 20.333 11.7261 20.333 9.33301C20.3328 6.94003 18.393 5.00018 16 5Z" fill="#313131"/>
</svg>
